<?xml version="1.0" encoding="iso-8859-1"?>
<!-- Generator: Adobe Illustrator 19.0.0, SVG Export Plug-In . SVG Version: 6.00 Build 0)  -->
<svg version="1.1" id="Capa_1" xmlns="http://www.w3.org/2000/svg" xmlns:xlink="http://www.w3.org/1999/xlink" x="0px" y="0px"
	 viewBox="0 0 512 512" style="enable-background:new 0 0 512 512;" xml:space="preserve">
<linearGradient id="SVGID_1_" gradientUnits="userSpaceOnUse" x1="51.003" y1="258" x2="460.997" y2="258" gradientTransform="matrix(1 0 0 -1 0 514)">
	<stop  offset="0" style="stop-color:#00F2FE"/>
	<stop  offset="0.021" style="stop-color:#03EFFE"/>
	<stop  offset="0.293" style="stop-color:#24D2FE"/>
	<stop  offset="0.554" style="stop-color:#3CBDFE"/>
	<stop  offset="0.796" style="stop-color:#4AB0FE"/>
	<stop  offset="1" style="stop-color:#4FACFE"/>
</linearGradient>
<path style="fill:url(#SVGID_1_);" d="M256,330c-68.925,0-125-56.075-125-125S187.075,80,256,80s125,56.075,125,125
	c0,12.234-1.768,24.33-5.253,35.953c-3.174,10.581-14.321,16.583-24.902,13.412c-10.58-3.173-16.585-14.322-13.412-24.902
	C339.8,221.57,341,213.339,341,205c0-46.869-38.131-85-85-85s-85,38.131-85,85s38.131,85,85,85c7.937,0,15.787-1.089,23.331-3.236
	c10.625-3.025,21.687,3.137,24.712,13.76c3.023,10.624-3.137,21.688-13.761,24.711C279.175,328.397,267.641,330,256,330z
	 M278.906,502.686c21.922-34.682,49.371-64.744,75.918-93.815c27.074-29.65,52.647-57.656,72.332-89.753
	c22.732-37.068,33.802-74.46,33.841-114.358c-0.063-54.708-21.414-106.13-60.12-144.795C362.167,21.296,310.715,0,256,0
	c-54.716,0-106.167,21.296-144.877,59.964c-38.706,38.666-60.058,90.088-60.12,144.838c0.039,39.855,11.108,77.248,33.841,114.315
	c19.685,32.098,45.258,60.104,72.332,89.753c26.547,29.071,53.996,59.133,75.918,93.815C236.759,508.484,243.141,512,250,512h12
	C268.859,512,275.241,508.484,278.906,502.686z M420.997,204.763c-0.07,72.396-44.392,120.934-95.711,177.136
	c-23.604,25.849-47.892,52.447-69.286,83.037c-21.395-30.59-45.682-57.188-69.286-83.037
	c-51.319-56.202-95.641-104.739-95.711-177.093C91.107,113.932,165.125,40,256,40S420.893,113.932,420.997,204.763z"/>
<g>
</g>
<g>
</g>
<g>
</g>
<g>
</g>
<g>
</g>
<g>
</g>
<g>
</g>
<g>
</g>
<g>
</g>
<g>
</g>
<g>
</g>
<g>
</g>
<g>
</g>
<g>
</g>
<g>
</g>
</svg>
